<?xml version="1.0" encoding="utf-8"?>
<!--Generator: Adobe Illustrator 16.0.0, SVG Export Plug-In . SVG Version: 6.00 Build 0)-->
<!DOCTYPE svg PUBLIC "-//W3C//DTD SVG 1.1//EN" "http://www.w3.org/Graphics/SVG/1.1/DTD/svg11.dtd">
<svg version="1.1" id="Layer_1" xmlns="http://www.w3.org/2000/svg" x="0" y="0" width="461.7" height="107" viewBox="0 0 461.7 107" xml:space="preserve">
  <path id="logo-h" fill-rule="evenodd" clip-rule="evenodd" fill="#FFF" d="M208.5 77c4.8-4 9.6-8 14.3-12 1.1 1.9 1.9 3.9 3.2 5.4 4.4 5.3 12.1 5.8 17.3 1.4 5.2-4.4 5.7-12 1.1-17.3-4.3-5-11.8-5.5-17.1-1.1-13 10.8-25.9 21.8-39 32.5-10 8.1-21.2 9.7-32.8 4.1-11.5-5.5-17.2-15.2-17.3-27.9 0-13.4 9.3-25.2 22.4-28.8 13-3.6 27.1 2 34 13.4.3.4.5.9.8 1.6-7.6 6.3-15.1 12.7-22.8 19.1-1.3-1.5-2.5-2.9-3.9-4.6 3.1-2.6 6.1-5.2 9.1-7.7-4.2-6.8-15.1-6-19.5 1.2-3.1 5-2.2 11.1 2.2 15.3 4.2 4 10.6 4.5 15.4.9 5.6-4.3 11-9 16.5-13.6 7.8-6.5 15.5-13.1 23.3-19.5 9.9-8 21-9.6 32.6-4.2 11.6 5.4 17.4 15.1 17.5 27.8.1 13.5-9.3 25.5-22.4 29.1-13.1 3.6-27.2-2.1-34.1-13.6-.4-.5-.5-.9-.8-1.5z"/>
  <path id="logo-g" fill-rule="evenodd" clip-rule="evenodd" fill="#FFF" d="M46.5 34.4c.2-.7.3-1.3.5-2h17.7v60.5H47c0-.8-.1-1.7-.1-2.6 0-9.3.1-18.6 0-27.8-.1-5.8-4-10.4-9.7-11.8-5.1-1.2-10.6 1.3-13.3 6.1-2.6 4.8-1.7 10.9 2.4 14.6 4.2 3.8 9 4.2 14.2 2v18.8C29 95 16.2 89.7 9.3 79.4 2.1 69 2.4 55 9.8 44.7 18 33.5 30.5 29.9 46.5 34.4z"/>
  <path id="logo-f" fill-rule="evenodd" clip-rule="evenodd" fill="#FFF" d="M79.3 83c4.5-3.8 9.1-7.6 13.6-11.4 7.8 6 16 3.4 19.6-3 3.4-6.1 1.2-13.2-5.5-16.8-11.8 9.9-23.6 19.8-36 30.1 0-8 0-15.5.1-22.9 0-.7.7-1.5 1.3-2 9.3-7.9 18.6-15.8 28.1-23.5 1.2-1 3.4-1.2 5-1 12.7 1.2 23.9 11.6 26.2 24.1 2.6 13.8-4 27.3-16.3 33.4-11.9 5.9-26.7 3.2-35.5-6.3-.2-.2-.3-.4-.6-.7z"/>
  <path id="logo-e" fill-rule="evenodd" clip-rule="evenodd" fill="#FFF" d="M204.4 6.8h17.9V28c-6.1 4.5-12 8.7-17.9 13.1V6.8z"/>
  <path id="logo-d" fill-rule="evenodd" clip-rule="evenodd" fill="#FFF" d="M311.4 34.5c.2-.7.3-1.3.5-2h17.7V93h-17.7c0-.8-.1-1.7-.1-2.6 0-9.3.1-18.6 0-27.8-.1-5.8-4-10.4-9.7-11.8-5.1-1.2-10.6 1.3-13.3 6.1-2.6 4.8-1.7 10.9 2.4 14.6 4.2 3.8 9 4.2 14.2 2v18.8c-11.5 2.8-24.3-2.5-31.2-12.8-7.2-10.5-6.9-24.5.6-34.8 8.1-11.2 20.6-14.7 36.6-10.2z"/>
  <path id="logo-c" fill-rule="evenodd" clip-rule="evenodd" fill="#FFF" d="M343.2 83c4.5-3.8 9.1-7.6 13.6-11.4 7.8 6 16 3.4 19.6-3 3.4-6.1 1.2-13.2-5.5-16.8-11.8 9.9-23.6 19.8-36 30.1 0-8 0-15.5.1-22.9 0-.7.7-1.5 1.3-2 9.3-7.9 18.6-15.8 28.1-23.5 1.2-1 3.4-1.2 5-1 12.7 1.2 23.9 11.6 26.2 24.1 2.6 13.8-4 27.3-16.3 33.4-11.9 5.9-26.7 3.2-35.5-6.3-.3-.1-.4-.4-.6-.7z"/>
  <path id="logo-b" fill-rule="evenodd" clip-rule="evenodd" fill="#FFF" d="M458.5 77.6s-3 5.1-7.1 8.2c-10.2 7.8-21.2 9.7-32.8 4.1-11.5-5.5-17.2-15.2-17.3-27.9 0-13.4 9.3-25.2 22.4-28.8 13-3.6 27.1 2 33.9 13.4.3.4.5.9.8 1.6-7.6 6.3-15.1 12.7-22.8 19.1-1.3-1.5-2.5-2.9-3.9-4.6 3.1-2.6 6.1-5.2 9.1-7.7-4.2-6.8-15.1-6-19.5 1.2-3.1 5-2.2 11.1 2.2 15.3 4.2 4 10.6 4.5 15.4.9 5.6-4.3 19.6-16.6 19.6-16.6"/>
</svg>
