<svg id="svg" version="1.1" xmlns="http://www.w3.org/2000/svg" xmlns:xlink="http://www.w3.org/1999/xlink" width="400" height="266.5" viewBox="0, 0, 400,266.5"><g id="svgg"><path id="path0" d="M193.830 53.726 C 193.761 53.795,192.571 53.974,191.186 54.125 C 188.390 54.428,186.015 54.793,184.400 55.166 C 183.813 55.302,182.733 55.542,182.000 55.700 C 181.267 55.858,180.007 56.178,179.200 56.412 C 176.643 57.153,175.882 57.367,175.263 57.517 C 174.931 57.598,174.593 57.769,174.514 57.899 C 174.434 58.028,174.134 58.133,173.847 58.133 C 173.561 58.133,173.118 58.239,172.863 58.369 C 172.608 58.498,172.100 58.724,171.733 58.870 C 166.722 60.862,163.396 62.529,158.234 65.635 C 145.505 73.295,133.235 87.438,127.495 101.067 C 126.931 102.408,126.460 103.515,125.850 104.933 C 120.967 116.290,119.493 133.337,122.090 148.400 C 122.636 151.568,124.811 159.257,125.881 161.800 C 126.020 162.130,126.241 162.670,126.373 163.000 C 127.621 166.127,130.004 170.939,131.688 173.733 C 132.484 175.053,133.388 176.553,133.697 177.067 C 134.006 177.580,134.838 178.780,135.546 179.733 C 136.253 180.687,137.095 181.821,137.416 182.254 C 140.107 185.884,144.779 190.724,149.067 194.325 C 151.915 196.717,158.595 201.600,159.019 201.600 C 159.094 201.600,160.036 202.117,161.111 202.748 C 163.218 203.985,168.612 206.638,170.133 207.185 C 171.345 207.621,172.286 208.004,172.863 208.298 C 173.118 208.427,173.561 208.533,173.847 208.533 C 174.134 208.533,174.434 208.639,174.514 208.768 C 174.593 208.897,174.931 209.065,175.263 209.141 C 175.595 209.217,176.887 209.580,178.133 209.948 C 182.497 211.237,187.337 212.175,192.933 212.817 C 195.896 213.157,207.156 212.999,210.267 212.574 C 212.667 212.245,215.452 211.797,216.133 211.630 C 216.427 211.557,217.567 211.300,218.667 211.058 C 221.386 210.460,226.490 208.960,228.133 208.276 C 228.427 208.154,229.087 207.880,229.600 207.666 C 230.113 207.453,231.253 206.996,232.133 206.651 C 233.717 206.031,236.681 204.555,239.659 202.903 C 242.066 201.568,242.222 201.479,242.520 201.267 C 242.674 201.157,243.400 200.669,244.133 200.184 C 246.661 198.509,249.964 196.112,250.694 195.422 C 250.901 195.226,251.789 194.472,252.668 193.745 C 257.237 189.968,263.155 183.237,267.055 177.381 C 269.702 173.407,274.933 163.264,274.933 162.107 C 274.933 161.971,275.039 161.651,275.169 161.396 C 275.869 160.020,276.861 156.902,277.735 153.333 C 278.112 151.793,278.536 150.165,278.677 149.714 C 278.818 149.264,278.933 148.546,278.933 148.119 L 278.933 147.343 278.267 148.324 C 277.900 148.864,277.600 149.380,277.600 149.471 C 277.600 150.622,270.508 159.635,266.141 164.034 C 261.705 168.503,253.995 174.667,252.841 174.667 C 252.696 174.667,252.538 174.757,252.489 174.867 C 252.325 175.234,246.401 178.293,243.467 179.525 C 243.100 179.679,242.560 179.904,242.267 180.025 C 235.944 182.638,227.829 184.111,219.733 184.114 C 213.986 184.117,212.519 183.975,206.933 182.880 C 204.054 182.316,199.018 180.874,198.547 180.479 C 198.407 180.362,198.136 180.267,197.944 180.267 C 197.751 180.267,197.025 180.013,196.330 179.702 C 195.635 179.392,194.647 178.955,194.133 178.731 C 189.232 176.592,182.085 172.255,179.306 169.733 C 179.145 169.587,178.425 168.989,177.706 168.404 C 175.981 167.001,170.519 161.545,169.187 159.894 C 168.608 159.175,168.008 158.455,167.856 158.294 C 165.902 156.225,166.457 155.903,169.076 157.585 C 170.432 158.456,175.338 160.971,177.623 161.967 C 179.020 162.576,184.184 164.261,185.590 164.567 C 188.255 165.148,189.284 165.350,191.200 165.668 C 193.827 166.104,205.037 166.102,207.867 165.664 C 209.040 165.483,210.420 165.269,210.933 165.190 C 211.447 165.110,212.287 164.937,212.800 164.806 C 213.313 164.675,214.333 164.424,215.067 164.249 C 219.692 163.144,227.684 159.815,230.895 157.655 C 231.283 157.394,231.917 157.022,232.305 156.827 C 233.635 156.160,238.288 152.562,240.788 150.268 C 242.886 148.343,243.136 148.086,245.200 145.734 C 246.227 144.564,247.187 143.473,247.333 143.310 C 247.480 143.146,248.080 142.330,248.667 141.496 C 249.253 140.662,250.003 139.655,250.333 139.257 C 250.663 138.859,250.933 138.383,250.933 138.200 C 250.933 138.017,251.053 137.867,251.200 137.867 C 251.347 137.867,251.467 137.749,251.467 137.605 C 251.467 137.461,251.874 136.707,252.371 135.930 C 253.731 133.803,255.760 129.778,256.905 126.933 C 257.466 125.540,258.026 124.160,258.148 123.867 C 260.199 118.964,263.259 104.665,262.375 104.118 C 262.242 104.036,262.130 104.246,262.126 104.584 C 262.119 105.243,261.015 108.674,260.714 108.975 C 260.615 109.074,260.533 109.313,260.533 109.506 C 260.533 109.873,258.659 113.790,257.627 115.579 C 255.142 119.889,251.510 124.044,246.898 127.855 C 244.071 130.191,237.873 133.556,234.400 134.640 C 233.300 134.983,232.100 135.358,231.733 135.473 C 230.929 135.726,229.267 136.109,226.933 136.582 C 224.665 137.042,215.347 137.043,213.333 136.585 C 212.527 136.401,211.207 136.118,210.400 135.957 C 202.221 134.317,193.142 128.846,187.196 121.975 C 183.820 118.074,180.555 112.445,179.168 108.133 C 178.979 107.547,178.729 106.953,178.612 106.813 C 178.496 106.674,178.400 106.282,178.400 105.943 C 178.400 105.604,178.286 105.118,178.148 104.863 C 176.318 101.505,176.316 88.241,178.144 82.267 C 179.290 78.521,179.640 77.602,181.124 74.440 C 184.856 66.493,192.004 59.219,200.267 54.959 C 201.513 54.317,202.583 53.748,202.644 53.695 C 202.706 53.643,200.776 53.600,198.356 53.600 C 195.936 53.600,193.899 53.657,193.830 53.726 M262.734 102.800 C 262.737 103.387,262.791 103.595,262.855 103.264 C 262.919 102.932,262.917 102.452,262.850 102.197 C 262.783 101.942,262.731 102.213,262.734 102.800 " stroke="none" fill="#fbfbfb" fill-rule="evenodd"></path><path id="path1" d="M0.000 133.333 L 0.000 266.667 200.000 266.667 L 400.000 266.667 400.000 133.333 L 400.000 0.000 200.000 0.000 L 0.000 0.000 0.000 133.333 M203.467 53.600 C 203.467 53.893,203.298 54.133,203.092 54.133 C 200.393 54.133,189.128 62.811,186.130 67.200 C 185.779 67.713,185.418 68.193,185.327 68.267 C 184.320 69.078,180.541 76.290,179.458 79.467 C 175.959 89.727,176.448 101.353,180.787 111.067 C 181.180 111.947,181.673 113.057,181.882 113.533 C 182.092 114.010,182.354 114.400,182.465 114.400 C 182.576 114.400,182.667 114.519,182.667 114.664 C 182.667 114.923,184.982 118.672,185.304 118.933 C 185.394 119.007,185.970 119.727,186.583 120.533 C 191.110 126.487,199.284 132.141,206.800 134.519 C 211.978 136.157,213.657 136.393,220.133 136.393 C 226.609 136.393,228.289 136.157,233.467 134.519 C 237.803 133.147,244.063 129.791,246.977 127.277 C 250.427 124.299,250.969 123.771,252.667 121.733 C 253.400 120.853,254.065 120.073,254.145 120.000 C 254.487 119.685,256.754 116.285,257.350 115.193 C 257.707 114.537,258.066 113.940,258.147 113.867 C 258.292 113.736,258.609 113.073,259.676 110.667 C 259.969 110.007,260.476 108.627,260.802 107.600 C 261.128 106.573,261.501 105.525,261.631 105.270 C 261.760 105.016,261.867 104.453,261.867 104.019 C 261.867 103.586,261.987 103.157,262.133 103.067 C 262.280 102.976,262.400 102.376,262.400 101.733 C 262.400 101.091,262.520 100.491,262.667 100.400 C 262.813 100.309,262.942 99.792,262.952 99.251 C 262.989 97.286,263.429 97.120,263.438 99.067 C 263.471 105.583,260.879 118.618,258.389 124.467 C 258.089 125.170,257.820 125.826,257.156 127.467 C 255.716 131.027,251.048 139.427,250.366 139.689 C 250.238 139.738,250.133 139.886,250.133 140.019 C 250.133 140.619,245.350 146.427,242.906 148.794 C 241.765 149.899,239.044 152.371,238.495 152.800 C 238.214 153.020,237.448 153.633,236.792 154.163 C 235.375 155.307,231.655 157.734,229.600 158.855 C 228.793 159.295,227.713 159.892,227.200 160.183 C 225.981 160.872,221.109 162.862,219.366 163.383 C 218.615 163.608,217.760 163.885,217.467 163.999 C 213.818 165.416,205.380 166.667,199.467 166.667 C 195.109 166.667,189.319 165.988,185.800 165.063 C 185.250 164.918,184.290 164.668,183.667 164.507 C 183.043 164.346,182.325 164.106,182.070 163.974 C 181.816 163.842,181.424 163.733,181.200 163.733 C 180.976 163.733,180.584 163.627,180.330 163.498 C 179.844 163.251,179.466 163.093,177.067 162.138 C 175.421 161.482,171.671 159.702,171.467 159.479 C 171.393 159.399,170.913 159.107,170.400 158.829 C 169.887 158.552,169.047 158.077,168.533 157.772 L 167.600 157.219 168.389 158.276 C 170.453 161.043,176.326 166.917,179.310 169.201 C 179.884 169.641,180.964 170.471,181.710 171.047 C 185.148 173.703,191.455 177.294,195.379 178.832 C 196.381 179.225,197.314 179.648,197.453 179.773 C 197.593 179.898,197.959 180.000,198.267 180.000 C 198.575 180.000,198.941 180.099,199.080 180.220 C 199.219 180.341,199.873 180.595,200.533 180.785 C 201.193 180.974,202.033 181.229,202.400 181.351 C 202.767 181.474,203.907 181.766,204.933 182.000 C 205.960 182.234,207.040 182.487,207.333 182.561 C 216.462 184.887,232.891 183.544,241.733 179.749 C 242.027 179.623,242.835 179.268,243.530 178.960 C 244.225 178.652,244.851 178.400,244.920 178.400 C 245.222 178.400,250.275 175.870,250.356 175.679 C 250.404 175.562,250.562 175.467,250.706 175.467 C 251.087 175.467,257.421 171.265,259.584 169.577 C 261.365 168.187,268.262 161.514,269.619 159.867 C 272.706 156.120,277.396 149.372,278.655 146.867 C 278.858 146.463,279.110 146.133,279.217 146.133 C 279.499 146.133,279.761 146.939,279.576 147.239 C 279.488 147.381,279.315 148.120,279.190 148.882 C 279.066 149.643,278.828 150.807,278.663 151.467 C 278.497 152.127,278.297 153.058,278.218 153.536 C 278.139 154.014,277.968 154.471,277.837 154.552 C 277.707 154.632,277.600 154.935,277.600 155.223 C 277.600 155.898,276.119 160.396,274.909 163.400 C 274.776 163.730,274.555 164.270,274.419 164.600 C 274.009 165.595,270.962 171.808,270.464 172.667 C 270.208 173.107,269.710 173.947,269.358 174.533 C 268.570 175.844,265.026 181.150,264.816 181.333 C 264.732 181.407,264.307 181.947,263.871 182.533 C 259.876 187.907,252.459 194.952,246.267 199.255 C 242.237 202.055,235.817 205.641,232.504 206.943 C 231.713 207.254,230.647 207.691,230.133 207.915 C 229.620 208.138,228.960 208.424,228.667 208.549 C 226.786 209.354,220.117 211.279,217.533 211.763 C 216.837 211.893,215.637 212.121,214.867 212.270 C 205.464 214.082,193.018 213.881,183.467 211.762 C 179.405 210.861,174.475 209.433,174.013 209.024 C 173.874 208.901,173.567 208.800,173.330 208.800 C 173.094 208.800,172.403 208.560,171.796 208.267 C 171.189 207.973,170.531 207.733,170.333 207.733 C 170.135 207.733,169.859 207.635,169.720 207.515 C 169.581 207.394,168.627 206.955,167.600 206.538 C 166.573 206.121,165.613 205.694,165.467 205.590 C 165.320 205.486,164.180 204.861,162.933 204.201 C 153.439 199.179,145.434 192.610,138.275 183.967 C 137.987 183.618,137.168 182.553,136.456 181.600 C 135.743 180.647,134.976 179.639,134.750 179.362 C 132.495 176.587,127.370 166.930,125.466 161.867 C 125.218 161.207,124.666 159.587,124.239 158.267 C 123.813 156.947,123.345 155.498,123.199 155.048 C 123.053 154.597,122.933 153.974,122.933 153.663 C 122.933 153.353,122.826 153.032,122.695 152.951 C 122.564 152.870,122.390 152.353,122.308 151.802 C 122.167 150.847,122.053 150.218,121.347 146.533 C 119.794 138.422,120.023 125.848,121.881 117.200 C 122.039 116.467,122.233 115.416,122.312 114.865 C 122.391 114.314,122.564 113.797,122.695 113.716 C 122.826 113.635,122.933 113.314,122.933 113.003 C 122.933 112.692,123.053 112.069,123.199 111.619 C 123.345 111.169,123.813 109.720,124.239 108.400 C 125.120 105.674,125.707 104.073,126.391 102.533 C 127.307 100.473,130.671 93.723,131.266 92.754 C 131.596 92.215,132.377 90.933,133.001 89.905 C 133.626 88.876,134.288 87.877,134.474 87.684 C 134.660 87.491,135.367 86.553,136.047 85.600 C 136.726 84.647,137.504 83.627,137.774 83.333 C 138.045 83.040,138.599 82.355,139.005 81.811 C 140.039 80.427,146.739 73.700,148.662 72.115 C 149.540 71.392,150.500 70.582,150.796 70.316 C 153.917 67.509,164.523 61.290,169.800 59.174 C 170.130 59.042,170.670 58.825,171.000 58.693 C 173.932 57.517,178.685 56.000,179.439 56.000 C 179.730 56.000,180.043 55.880,180.133 55.733 C 180.224 55.587,180.687 55.467,181.162 55.467 C 181.638 55.467,182.141 55.359,182.280 55.227 C 182.419 55.096,183.013 54.922,183.600 54.841 C 184.187 54.760,185.327 54.568,186.133 54.415 C 193.063 53.096,203.467 52.607,203.467 53.600 " stroke="none" fill="#ac3444" fill-rule="evenodd"></path><path id="path2" d="M199.867 53.320 C 202.224 53.428,203.049 53.554,203.000 53.800 C 202.963 53.983,203.053 54.133,203.200 54.133 C 203.347 54.133,203.467 53.893,203.467 53.600 C 203.467 53.092,203.307 53.069,200.067 53.120 L 196.667 53.174 199.867 53.320 M193.133 53.528 C 193.683 53.585,194.583 53.585,195.133 53.528 C 195.683 53.470,195.233 53.423,194.133 53.423 C 193.033 53.423,192.583 53.470,193.133 53.528 M187.600 54.131 C 187.268 54.272,187.621 54.301,188.533 54.208 C 189.340 54.126,190.050 54.015,190.111 53.963 C 190.341 53.764,188.111 53.914,187.600 54.131 M184.800 54.670 C 184.519 54.855,184.677 54.882,185.333 54.761 C 186.483 54.550,186.700 54.399,185.844 54.404 C 185.490 54.406,185.020 54.526,184.800 54.670 M182.267 55.200 C 182.072 55.515,182.333 55.515,183.067 55.200 C 183.581 54.979,183.579 54.970,183.016 54.952 C 182.694 54.942,182.357 55.053,182.267 55.200 M199.133 55.751 C 198.583 56.042,198.133 56.339,198.133 56.412 C 198.133 56.485,198.613 56.299,199.200 56.000 C 199.787 55.701,200.267 55.398,200.267 55.328 C 200.267 55.153,200.265 55.154,199.133 55.751 M173.200 57.886 C 172.613 58.168,172.426 58.324,172.783 58.232 C 173.759 57.982,175.124 57.353,174.667 57.364 C 174.447 57.369,173.787 57.604,173.200 57.886 M193.235 59.743 C 192.521 60.324,192.041 60.796,192.169 60.792 C 192.409 60.784,194.901 58.681,194.667 58.684 C 194.593 58.685,193.949 59.161,193.235 59.743 M189.460 63.267 L 187.333 65.467 189.533 63.340 C 190.743 62.170,191.733 61.180,191.733 61.140 C 191.733 60.945,191.436 61.223,189.460 63.267 M157.596 65.502 C 156.008 66.554,155.099 67.340,156.400 66.537 C 158.584 65.189,159.476 64.533,159.130 64.533 C 159.091 64.533,158.401 64.969,157.596 65.502 M152.412 69.083 C 151.245 69.954,150.376 70.667,150.481 70.667 C 150.715 70.667,154.667 67.761,154.667 67.590 C 154.667 67.400,154.664 67.402,152.412 69.083 M183.897 70.000 C 183.660 70.367,183.272 70.997,183.035 71.400 L 182.603 72.133 183.140 71.484 C 183.774 70.717,184.614 69.333,184.446 69.333 C 184.381 69.333,184.134 69.633,183.897 70.000 M147.796 72.808 C 147.317 73.244,147.024 73.600,147.146 73.600 C 147.267 73.600,147.712 73.240,148.133 72.800 C 149.113 71.777,148.924 71.781,147.796 72.808 M143.858 76.600 L 142.267 78.267 143.933 76.675 C 144.850 75.800,145.600 75.050,145.600 75.008 C 145.600 74.811,145.337 75.052,143.858 76.600 M179.496 78.696 C 179.332 79.168,179.244 79.600,179.301 79.657 C 179.358 79.714,179.539 79.375,179.704 78.904 C 179.868 78.432,179.956 78.000,179.899 77.943 C 179.842 77.886,179.661 78.225,179.496 78.696 M139.600 81.067 C 139.178 81.507,138.946 81.860,139.083 81.852 C 139.318 81.838,140.693 80.267,140.470 80.267 C 140.413 80.267,140.022 80.627,139.600 81.067 M136.800 84.533 C 136.335 85.120,136.015 85.600,136.089 85.600 C 136.162 85.600,136.602 85.120,137.067 84.533 C 137.531 83.947,137.851 83.467,137.778 83.467 C 137.705 83.467,137.265 83.947,136.800 84.533 M177.903 84.178 C 177.883 84.496,177.798 84.976,177.713 85.245 C 177.568 85.707,177.576 85.708,177.864 85.259 C 178.031 84.998,178.117 84.518,178.054 84.192 C 177.939 83.601,177.939 83.601,177.903 84.178 M177.236 87.970 C 177.133 88.612,177.105 89.194,177.174 89.263 C 177.353 89.442,177.677 87.563,177.538 87.148 C 177.475 86.957,177.339 87.327,177.236 87.970 M134.157 88.067 C 133.952 88.397,133.610 88.937,133.395 89.267 C 132.697 90.341,133.220 89.899,134.105 88.667 C 134.579 88.007,134.868 87.467,134.747 87.467 C 134.627 87.467,134.361 87.737,134.157 88.067 M263.101 97.933 C 263.013 98.263,262.939 98.916,262.937 99.384 C 262.935 99.852,262.813 100.309,262.667 100.400 C 262.520 100.491,262.412 100.888,262.427 101.282 L 262.453 102.000 262.686 101.333 C 262.837 100.900,262.890 101.695,262.837 103.600 C 262.720 107.760,263.130 105.846,263.357 101.168 C 263.534 97.526,263.461 96.593,263.101 97.933 M177.120 98.400 C 177.120 98.767,177.216 99.367,177.333 99.733 L 177.547 100.400 177.547 99.733 C 177.547 99.367,177.451 98.767,177.333 98.400 L 177.120 97.733 177.120 98.400 M177.623 101.867 C 177.631 102.087,177.741 102.507,177.867 102.800 L 178.096 103.333 178.111 102.800 C 178.119 102.507,178.009 102.087,177.867 101.867 C 177.637 101.511,177.610 101.511,177.623 101.867 M262.044 103.111 C 261.947 103.209,261.874 103.539,261.884 103.844 C 261.899 104.355,261.921 104.349,262.156 103.761 C 262.417 103.108,262.363 102.793,262.044 103.111 M178.296 104.667 C 178.515 105.647,178.668 105.860,178.663 105.178 C 178.660 104.897,178.537 104.487,178.388 104.267 C 178.190 103.975,178.165 104.082,178.296 104.667 M125.127 105.667 C 124.673 106.922,124.736 107.262,125.217 106.153 C 125.435 105.651,125.578 105.133,125.534 105.001 C 125.490 104.870,125.307 105.169,125.127 105.667 M262.443 107.912 C 262.419 108.376,262.331 108.976,262.247 109.245 C 262.102 109.706,262.110 109.707,262.396 109.261 C 262.563 109.001,262.651 108.401,262.592 107.928 L 262.485 107.067 262.443 107.912 M179.353 108.000 C 179.451 108.367,179.642 108.847,179.778 109.067 C 179.950 109.345,179.971 109.263,179.847 108.800 C 179.749 108.433,179.558 107.953,179.422 107.733 C 179.250 107.455,179.229 107.537,179.353 108.000 M261.767 111.500 C 261.544 112.612,261.760 112.827,262.000 111.733 C 262.101 111.272,262.128 110.840,262.061 110.772 C 261.993 110.704,261.860 111.031,261.767 111.500 M122.578 113.778 C 122.480 113.876,122.408 114.206,122.417 114.511 C 122.432 115.022,122.454 115.015,122.689 114.428 C 122.950 113.775,122.896 113.459,122.578 113.778 M261.200 114.133 C 261.100 114.449,261.078 114.767,261.151 114.840 C 261.225 114.914,261.367 114.715,261.467 114.400 C 261.567 114.085,261.589 113.766,261.515 113.693 C 261.442 113.620,261.300 113.818,261.200 114.133 M182.899 115.600 C 183.043 115.893,183.356 116.373,183.595 116.667 L 184.029 117.200 183.768 116.667 C 183.624 116.373,183.310 115.893,183.071 115.600 L 182.637 115.067 182.899 115.600 M122.033 116.144 C 121.941 116.382,121.877 116.777,121.890 117.022 C 121.902 117.266,122.018 117.113,122.147 116.680 C 122.399 115.838,122.310 115.422,122.033 116.144 M255.891 117.467 C 255.651 117.833,255.558 118.133,255.684 118.133 C 255.811 118.133,256.051 117.833,256.218 117.467 C 256.385 117.100,256.478 116.800,256.425 116.800 C 256.372 116.800,256.131 117.100,255.891 117.467 M121.504 118.723 C 121.414 119.059,121.353 119.693,121.368 120.133 C 121.387 120.685,121.465 120.523,121.618 119.608 C 121.851 118.215,121.782 117.684,121.504 118.723 M186.047 120.236 C 186.608 120.953,187.104 121.505,187.150 121.464 C 187.285 121.342,185.488 118.968,185.247 118.950 C 185.126 118.941,185.486 119.520,186.047 120.236 M252.679 121.685 C 251.952 122.592,251.566 123.166,251.820 122.961 C 252.521 122.396,254.482 119.997,254.225 120.018 C 254.101 120.029,253.405 120.779,252.679 121.685 M188.562 123.133 C 189.206 123.830,190.213 124.813,190.800 125.318 C 191.387 125.822,190.909 125.252,189.740 124.051 C 187.431 121.680,186.672 121.089,188.562 123.133 M120.876 123.600 C 120.878 124.333,120.930 124.602,120.991 124.196 C 121.053 123.791,121.051 123.191,120.988 122.863 C 120.924 122.535,120.874 122.867,120.876 123.600 M249.729 124.807 C 249.636 124.957,248.843 125.677,247.966 126.407 C 247.090 127.136,246.471 127.733,246.592 127.733 C 246.865 127.733,250.336 124.563,250.082 124.546 C 249.981 124.539,249.822 124.656,249.729 124.807 M120.595 126.133 C 120.595 126.647,120.650 126.857,120.717 126.600 C 120.784 126.343,120.784 125.923,120.717 125.667 C 120.650 125.410,120.595 125.620,120.595 126.133 M192.893 127.135 C 192.997 127.304,193.461 127.711,193.923 128.040 C 194.385 128.369,194.678 128.500,194.573 128.332 C 194.469 128.163,194.006 127.756,193.544 127.427 C 193.082 127.098,192.789 126.966,192.893 127.135 M120.379 133.200 C 120.378 136.133,120.417 137.370,120.465 135.948 C 120.513 134.525,120.513 132.125,120.466 130.614 C 120.418 129.103,120.379 130.267,120.379 133.200 M243.288 129.817 C 241.801 130.775,241.462 131.184,242.800 130.405 C 243.785 129.832,244.813 129.044,244.524 129.084 C 244.456 129.093,243.900 129.423,243.288 129.817 M196.933 130.005 C 197.227 130.244,197.707 130.557,198.000 130.701 L 198.533 130.963 198.000 130.529 C 197.707 130.290,197.227 129.976,196.933 129.832 L 196.400 129.571 196.933 130.005 M236.000 133.600 C 235.340 133.877,234.935 134.110,235.101 134.118 C 235.479 134.137,237.333 133.371,237.333 133.196 C 237.333 133.032,237.408 133.009,236.000 133.600 M209.889 135.562 C 209.950 135.615,210.360 135.739,210.800 135.837 C 211.384 135.968,211.492 135.943,211.200 135.746 C 210.840 135.502,209.621 135.332,209.889 135.562 M213.200 136.267 C 214.328 136.554,215.296 136.554,214.400 136.267 C 214.033 136.149,213.433 136.055,213.067 136.058 C 212.468 136.063,212.481 136.084,213.200 136.267 M225.867 136.267 C 224.970 136.554,225.939 136.554,227.067 136.267 C 227.785 136.084,227.799 136.063,227.200 136.058 C 226.833 136.055,226.233 136.149,225.867 136.267 M218.610 136.731 C 219.533 136.783,220.973 136.783,221.810 136.730 C 222.648 136.677,221.893 136.635,220.133 136.635 C 218.373 136.636,217.688 136.679,218.610 136.731 M251.102 138.394 C 250.716 138.978,250.400 139.545,250.400 139.654 C 250.400 139.763,250.562 139.615,250.759 139.326 C 251.628 138.054,252.052 137.333,251.933 137.333 C 251.862 137.333,251.488 137.811,251.102 138.394 M120.595 140.533 C 120.595 141.047,120.650 141.257,120.717 141.000 C 120.784 140.743,120.784 140.323,120.717 140.067 C 120.650 139.810,120.595 140.020,120.595 140.533 M120.876 143.067 C 120.878 143.800,120.930 144.068,120.991 143.663 C 121.053 143.258,121.051 142.658,120.988 142.330 C 120.924 142.002,120.874 142.333,120.876 143.067 M244.267 147.067 C 243.322 148.020,242.644 148.800,242.760 148.800 C 242.876 148.800,243.113 148.642,243.286 148.448 C 243.459 148.255,244.195 147.475,244.923 146.715 C 245.651 145.955,246.188 145.333,246.116 145.333 C 246.044 145.333,245.212 146.113,244.267 147.067 M121.395 146.667 C 121.395 147.180,121.450 147.390,121.517 147.133 C 121.584 146.877,121.584 146.457,121.517 146.200 C 121.450 145.943,121.395 146.153,121.395 146.667 M278.712 146.693 C 278.219 147.483,278.438 147.542,279.012 146.774 C 279.276 146.422,279.395 146.133,279.277 146.133 C 279.158 146.133,278.904 146.385,278.712 146.693 M278.973 149.112 C 278.951 149.503,278.864 150.043,278.780 150.312 C 278.635 150.773,278.643 150.774,278.930 150.327 C 279.097 150.066,279.184 149.526,279.124 149.127 L 279.013 148.400 278.973 149.112 M240.923 150.467 L 239.600 151.867 241.061 150.533 C 241.865 149.800,242.575 149.170,242.639 149.133 C 242.703 149.097,242.641 149.067,242.501 149.067 C 242.361 149.067,241.651 149.697,240.923 150.467 M121.871 149.756 C 121.873 150.037,121.997 150.447,122.146 150.667 C 122.343 150.959,122.368 150.851,122.237 150.267 C 122.018 149.286,121.865 149.073,121.871 149.756 M278.431 151.512 C 278.414 151.756,278.331 152.176,278.247 152.445 C 278.101 152.908,278.109 152.909,278.398 152.458 C 278.565 152.197,278.648 151.777,278.582 151.525 C 278.474 151.112,278.459 151.111,278.431 151.512 M122.419 152.184 C 122.408 152.506,122.520 152.843,122.667 152.933 C 122.982 153.128,122.982 152.867,122.667 152.133 C 122.446 151.619,122.437 151.621,122.419 152.184 M274.523 153.400 C 274.101 154.041,273.977 154.368,274.239 154.153 C 274.679 153.791,275.597 152.267,275.376 152.267 C 275.318 152.267,274.935 152.777,274.523 153.400 M235.457 154.954 L 234.533 155.775 235.392 155.209 C 236.153 154.706,236.729 154.133,236.472 154.133 C 236.421 154.133,235.964 154.503,235.457 154.954 M233.195 156.437 C 231.834 157.340,231.355 157.816,232.418 157.209 C 233.353 156.676,234.601 155.748,234.395 155.739 C 234.319 155.736,233.779 156.050,233.195 156.437 M272.117 156.712 C 271.706 157.251,271.506 157.607,271.673 157.504 C 272.014 157.293,273.168 155.733,272.983 155.733 C 272.917 155.733,272.527 156.174,272.117 156.712 M167.637 157.592 C 167.910 158.056,168.367 158.638,168.653 158.885 C 169.089 159.261,169.079 159.209,168.590 158.569 C 168.270 158.148,168.069 157.704,168.144 157.582 C 168.220 157.460,168.025 157.223,167.711 157.055 L 167.140 156.749 167.637 157.592 M171.149 161.733 C 172.728 163.567,174.269 165.089,176.415 166.936 C 177.011 167.448,176.601 167.016,175.506 165.977 C 174.410 164.937,172.620 163.137,171.528 161.977 C 169.576 159.903,169.569 159.898,171.149 161.733 M265.727 164.067 L 263.600 166.267 265.800 164.140 C 267.843 162.164,268.122 161.867,267.927 161.867 C 267.887 161.867,266.897 162.857,265.727 164.067 M183.733 164.530 C 183.953 164.674,184.423 164.794,184.778 164.796 C 185.634 164.801,185.417 164.650,184.267 164.439 C 183.610 164.318,183.452 164.345,183.733 164.530 M214.800 164.533 C 214.062 164.721,214.052 164.739,214.667 164.764 C 215.033 164.779,215.513 164.676,215.733 164.533 C 216.187 164.240,215.953 164.240,214.800 164.533 M185.867 165.063 C 186.087 165.207,186.557 165.327,186.911 165.329 C 187.767 165.335,187.550 165.183,186.400 164.972 C 185.743 164.852,185.585 164.878,185.867 165.063 M211.333 165.346 C 210.962 165.514,211.123 165.538,211.867 165.425 C 212.453 165.336,212.983 165.219,213.044 165.165 C 213.274 164.963,211.845 165.114,211.333 165.346 M189.733 165.867 C 190.861 166.154,191.830 166.154,190.933 165.867 C 190.567 165.749,189.967 165.655,189.600 165.658 C 189.001 165.663,189.015 165.684,189.733 165.867 M208.133 165.867 C 207.024 166.149,208.116 166.161,209.467 165.882 C 210.364 165.696,210.406 165.661,209.733 165.662 C 209.293 165.663,208.573 165.755,208.133 165.867 M194.133 166.411 C 195.334 166.627,198.854 166.752,198.644 166.570 C 198.583 166.517,197.273 166.411,195.733 166.334 C 193.905 166.243,193.350 166.270,194.133 166.411 M201.867 166.400 L 199.867 166.571 201.733 166.599 C 202.760 166.614,204.140 166.531,204.800 166.414 L 206.000 166.200 204.933 166.215 C 204.347 166.223,202.967 166.306,201.867 166.400 M260.523 168.819 L 259.600 169.638 260.600 168.921 C 261.484 168.287,261.771 168.000,261.523 168.000 C 261.481 168.000,261.031 168.369,260.523 168.819 M178.493 168.735 C 178.597 168.904,179.061 169.311,179.523 169.640 C 179.985 169.969,180.278 170.100,180.173 169.932 C 180.069 169.763,179.606 169.356,179.144 169.027 C 178.682 168.698,178.389 168.566,178.493 168.735 M271.733 169.867 C 271.434 170.453,271.249 170.933,271.322 170.933 C 271.396 170.933,271.701 170.453,272.000 169.867 C 272.299 169.280,272.484 168.800,272.411 168.800 C 272.338 168.800,272.033 169.280,271.733 169.867 M180.556 170.477 C 180.617 170.520,181.147 170.889,181.733 171.297 L 182.800 172.038 181.877 171.219 C 181.369 170.769,180.839 170.400,180.699 170.400 C 180.559 170.400,180.494 170.435,180.556 170.477 M185.733 174.005 C 186.027 174.244,186.507 174.557,186.800 174.701 L 187.333 174.963 186.800 174.529 C 186.507 174.290,186.027 173.976,185.733 173.832 L 185.200 173.571 185.733 174.005 M252.067 174.697 C 251.158 175.279,250.864 175.670,251.667 175.229 C 252.279 174.893,253.237 174.151,253.067 174.146 C 252.993 174.144,252.543 174.392,252.067 174.697 M187.733 175.213 C 188.658 175.841,189.185 176.024,188.533 175.490 C 188.167 175.191,187.747 174.944,187.600 174.943 C 187.453 174.942,187.513 175.064,187.733 175.213 M268.231 175.933 C 267.226 177.548,267.125 177.773,267.721 177.067 C 268.327 176.349,269.153 174.933,268.967 174.933 C 268.904 174.933,268.573 175.383,268.231 175.933 M132.930 176.667 C 134.135 178.617,134.546 179.194,134.733 179.197 C 134.843 179.199,134.491 178.570,133.952 177.800 C 132.811 176.170,132.214 175.508,132.930 176.667 M246.667 177.600 C 246.153 177.881,245.853 178.111,246.000 178.111 C 246.147 178.111,246.687 177.881,247.200 177.600 C 247.713 177.319,248.013 177.089,247.867 177.089 C 247.720 177.089,247.180 177.319,246.667 177.600 M244.355 178.615 C 243.744 178.863,243.144 179.167,243.022 179.290 C 242.741 179.573,245.111 178.666,245.453 178.360 C 245.795 178.054,245.654 178.087,244.355 178.615 M136.800 182.133 C 137.265 182.720,137.705 183.200,137.778 183.200 C 137.851 183.200,137.531 182.720,137.067 182.133 C 136.602 181.547,136.162 181.067,136.089 181.067 C 136.015 181.067,136.335 181.547,136.800 182.133 M234.933 181.867 C 234.384 182.043,234.361 182.084,234.800 182.103 C 235.093 182.115,235.513 182.009,235.733 181.867 C 236.201 181.565,235.876 181.565,234.933 181.867 M232.297 182.422 C 231.653 182.548,231.057 182.720,230.973 182.805 C 230.775 183.003,233.036 182.653,233.733 182.378 C 234.419 182.107,233.801 182.126,232.297 182.422 M206.156 182.498 C 206.217 182.552,206.747 182.669,207.333 182.758 C 208.077 182.872,208.238 182.848,207.867 182.679 C 207.355 182.447,205.926 182.296,206.156 182.498 M209.270 183.122 C 209.601 183.186,210.081 183.183,210.336 183.117 C 210.591 183.050,210.320 182.998,209.733 183.001 C 209.147 183.004,208.938 183.058,209.270 183.122 M228.133 183.202 C 227.790 183.351,228.076 183.378,228.933 183.279 C 229.667 183.194,230.317 183.082,230.378 183.029 C 230.609 182.830,228.643 182.981,228.133 183.202 M214.400 183.743 C 215.353 183.850,216.793 183.933,217.600 183.927 C 219.034 183.916,219.025 183.912,217.200 183.724 C 216.173 183.619,214.733 183.536,214.000 183.540 C 212.746 183.548,212.769 183.560,214.400 183.743 M222.000 183.733 L 220.400 183.910 221.733 183.922 C 222.467 183.928,223.907 183.848,224.933 183.742 L 226.800 183.551 225.200 183.553 C 224.320 183.555,222.880 183.636,222.000 183.733 M138.933 184.883 C 138.933 184.929,139.323 185.319,139.800 185.750 L 140.667 186.533 139.883 185.667 C 139.153 184.859,138.933 184.677,138.933 184.883 M260.650 186.200 L 259.867 187.067 260.733 186.283 C 261.210 185.853,261.600 185.463,261.600 185.417 C 261.600 185.211,261.380 185.392,260.650 186.200 M140.800 186.842 C 140.800 186.988,141.130 187.398,141.533 187.754 L 142.267 188.400 141.600 187.600 C 141.233 187.160,140.903 186.750,140.867 186.689 C 140.830 186.628,140.800 186.697,140.800 186.842 M144.133 190.400 C 145.152 191.427,146.046 192.267,146.119 192.267 C 146.192 192.267,145.419 191.427,144.400 190.400 C 143.381 189.373,142.488 188.533,142.414 188.533 C 142.341 188.533,143.115 189.373,144.133 190.400 M256.392 190.733 L 254.800 192.400 256.467 190.808 C 258.015 189.330,258.255 189.067,258.058 189.067 C 258.017 189.067,257.267 189.817,256.392 190.733 M252.667 194.067 C 251.640 195.025,251.220 195.477,251.733 195.070 C 253.169 193.934,254.724 192.501,254.624 192.408 C 254.574 192.362,253.693 193.108,252.667 194.067 M148.066 194.055 C 149.810 195.575,150.169 195.747,148.673 194.345 C 147.936 193.655,147.243 193.085,147.133 193.078 C 147.022 193.072,147.442 193.511,148.066 194.055 M151.829 197.006 C 152.040 197.347,153.600 198.502,153.600 198.316 C 153.600 198.251,153.159 197.861,152.621 197.450 C 152.083 197.039,151.726 196.839,151.829 197.006 M247.800 197.891 C 247.030 198.475,246.400 199.008,246.400 199.076 C 246.400 199.244,249.028 197.346,249.215 197.042 C 249.447 196.666,249.300 196.755,247.800 197.891 M243.533 200.831 C 242.624 201.413,242.330 201.804,243.133 201.362 C 243.745 201.026,244.704 200.285,244.533 200.280 C 244.460 200.277,244.010 200.525,243.533 200.831 M157.733 201.205 C 158.027 201.444,158.507 201.757,158.800 201.901 L 159.333 202.163 158.800 201.729 C 158.507 201.490,158.027 201.176,157.733 201.032 L 157.200 200.771 157.733 201.205 M240.533 202.690 C 240.091 203.053,240.046 203.143,240.400 202.960 C 241.270 202.511,241.752 202.141,241.467 202.143 C 241.320 202.144,240.900 202.391,240.533 202.690 M164.800 205.147 C 164.800 205.332,167.781 206.708,167.907 206.582 C 167.967 206.522,167.383 206.188,166.608 205.840 C 165.834 205.492,165.110 205.165,165.000 205.114 C 164.890 205.064,164.800 205.078,164.800 205.147 M224.571 209.639 C 224.078 209.781,223.725 209.947,223.786 210.008 C 223.920 210.143,225.867 209.625,225.867 209.454 C 225.867 209.297,225.655 209.327,224.571 209.639 M222.267 210.400 C 221.930 210.544,221.881 210.629,222.133 210.629 C 222.353 210.629,222.773 210.526,223.067 210.400 C 223.403 210.256,223.452 210.171,223.200 210.171 C 222.980 210.171,222.560 210.274,222.267 210.400 M182.133 211.467 C 182.353 211.609,182.713 211.725,182.933 211.725 C 183.289 211.725,183.289 211.696,182.933 211.467 C 182.713 211.324,182.353 211.208,182.133 211.208 C 181.778 211.208,181.778 211.237,182.133 211.467 M218.000 211.467 L 217.467 211.696 218.000 211.711 C 218.293 211.719,218.713 211.609,218.933 211.467 C 219.463 211.124,218.797 211.124,218.000 211.467 M184.533 212.000 C 184.753 212.142,185.233 212.248,185.600 212.236 L 186.267 212.214 185.600 212.000 C 184.572 211.671,184.024 211.671,184.533 212.000 M215.467 212.000 C 214.917 212.176,214.894 212.217,215.333 212.236 C 215.627 212.248,216.047 212.142,216.267 212.000 C 216.734 211.698,216.410 211.698,215.467 212.000 M187.467 212.531 C 187.828 212.766,190.109 212.933,189.844 212.704 C 189.783 212.652,189.133 212.532,188.400 212.439 C 187.490 212.324,187.194 212.353,187.467 212.531 M212.133 212.533 L 211.067 212.724 212.000 212.743 C 212.513 212.754,213.173 212.659,213.467 212.533 C 214.095 212.263,213.641 212.263,212.133 212.533 M191.200 213.080 C 191.869 213.281,195.653 213.419,195.444 213.235 C 195.383 213.181,194.253 213.079,192.933 213.008 C 191.613 212.937,190.833 212.969,191.200 213.080 M207.333 213.067 L 205.467 213.239 207.200 213.260 C 208.153 213.271,209.233 213.184,209.600 213.067 C 210.393 212.813,210.081 212.813,207.333 213.067 M198.479 213.532 C 199.622 213.582,201.422 213.582,202.479 213.531 C 203.535 213.481,202.600 213.440,200.400 213.440 C 198.200 213.440,197.335 213.482,198.479 213.532 " stroke="none" fill="#c77b86" fill-rule="evenodd"></path><path id="path3" d="M176.888 94.000 C 176.889 95.027,176.937 95.414,176.995 94.861 C 177.052 94.307,177.051 93.467,176.992 92.994 C 176.934 92.521,176.886 92.973,176.888 94.000 " stroke="none" fill="#d4929c" fill-rule="evenodd"></path><path id="path4" d="M198.333 53.530 C 199.103 53.584,200.363 53.584,201.133 53.530 C 201.903 53.476,201.273 53.432,199.733 53.432 C 198.193 53.432,197.563 53.476,198.333 53.530 M191.467 53.867 C 190.759 54.016,190.694 54.068,191.200 54.083 C 191.567 54.094,192.347 54.003,192.933 53.882 C 193.822 53.698,193.867 53.662,193.200 53.666 C 192.760 53.668,191.980 53.759,191.467 53.867 M201.867 54.133 C 201.353 54.414,201.029 54.649,201.147 54.655 C 201.429 54.670,202.933 53.888,202.933 53.726 C 202.933 53.552,202.918 53.558,201.867 54.133 M187.600 54.400 C 186.874 54.585,186.862 54.605,187.467 54.616 C 187.833 54.623,188.373 54.526,188.667 54.400 C 189.324 54.117,188.710 54.117,187.600 54.400 M178.933 56.279 C 178.641 56.477,178.749 56.501,179.333 56.371 C 180.314 56.151,180.527 55.999,179.844 56.004 C 179.563 56.006,179.153 56.130,178.933 56.279 M197.370 56.542 C 196.553 57.223,196.995 57.216,197.867 56.533 C 198.233 56.247,198.413 56.013,198.267 56.015 C 198.120 56.016,197.717 56.254,197.370 56.542 M194.200 58.691 C 193.430 59.275,192.800 59.808,192.800 59.876 C 192.800 60.044,195.428 58.146,195.615 57.842 C 195.847 57.466,195.700 57.555,194.200 58.691 M191.581 60.868 L 190.800 61.731 191.600 61.066 C 192.040 60.700,192.450 60.370,192.511 60.333 C 192.572 60.297,192.563 60.208,192.492 60.136 C 192.420 60.064,192.010 60.394,191.581 60.868 M187.484 64.881 L 186.834 65.733 187.684 64.950 C 188.568 64.135,188.668 63.990,188.333 64.015 C 188.223 64.023,187.841 64.413,187.484 64.881 M158.467 65.218 C 157.208 65.972,156.918 66.366,158.067 65.761 C 158.873 65.336,159.944 64.554,159.733 64.544 C 159.660 64.541,159.090 64.844,158.467 65.218 M184.749 68.333 C 183.987 69.354,182.730 71.453,183.112 71.067 C 183.489 70.685,185.625 67.467,185.500 67.467 C 185.443 67.467,185.105 67.857,184.749 68.333 M153.133 68.825 C 152.363 69.408,151.733 69.941,151.733 70.009 C 151.733 70.177,154.361 68.279,154.549 67.975 C 154.781 67.600,154.633 67.688,153.133 68.825 M147.583 73.400 L 146.800 74.267 147.667 73.483 C 148.143 73.053,148.533 72.663,148.533 72.617 C 148.533 72.411,148.313 72.592,147.583 73.400 M181.187 74.158 C 180.953 74.612,180.808 75.030,180.866 75.088 C 180.924 75.146,181.171 74.775,181.415 74.263 C 181.963 73.113,181.773 73.025,181.187 74.158 M143.733 76.933 C 142.493 78.180,141.596 79.185,141.739 79.166 C 142.001 79.131,146.338 74.667,146.110 74.667 C 146.043 74.667,144.974 75.687,143.733 76.933 M139.467 81.600 C 138.704 82.480,138.141 83.200,138.214 83.200 C 138.287 83.200,138.971 82.480,139.733 81.600 C 140.496 80.720,141.059 80.000,140.986 80.000 C 140.913 80.000,140.229 80.720,139.467 81.600 M137.563 83.933 C 136.717 84.954,136.412 85.428,136.721 85.243 C 137.062 85.039,138.246 83.467,138.059 83.467 C 137.999 83.467,137.775 83.677,137.563 83.933 M135.395 86.822 C 134.329 88.333,133.417 89.825,133.777 89.467 C 134.209 89.036,136.528 85.600,136.386 85.600 C 136.314 85.600,135.868 86.150,135.395 86.822 M176.888 90.533 C 176.889 91.560,176.937 91.947,176.995 91.394 C 177.052 90.841,177.051 90.001,176.992 89.527 C 176.934 89.054,176.886 89.507,176.888 90.533 M176.613 93.867 C 176.613 94.673,176.663 95.003,176.724 94.600 C 176.785 94.197,176.785 93.537,176.724 93.133 C 176.663 92.730,176.613 93.060,176.613 93.867 M176.883 97.200 C 176.884 98.080,176.934 98.408,176.993 97.929 C 177.053 97.449,177.051 96.729,176.991 96.329 C 176.930 95.928,176.881 96.320,176.883 97.200 M126.927 101.733 C 126.784 102.100,126.539 102.730,126.383 103.133 C 126.227 103.537,126.209 103.747,126.343 103.600 C 126.658 103.255,127.505 101.067,127.325 101.067 C 127.249 101.067,127.070 101.367,126.927 101.733 M262.345 102.933 C 262.260 103.447,262.282 103.965,262.394 104.085 C 262.506 104.205,262.557 104.865,262.507 105.552 L 262.418 106.800 262.672 105.593 C 262.814 104.918,262.832 103.860,262.713 103.193 L 262.499 102.000 262.345 102.933 M261.898 104.845 C 261.881 105.090,261.798 105.510,261.713 105.778 C 261.568 106.241,261.576 106.242,261.864 105.792 C 262.032 105.530,262.115 105.110,262.049 104.858 C 261.940 104.445,261.925 104.444,261.898 104.845 M262.000 108.800 C 261.898 109.406,261.870 109.959,261.938 110.027 C 262.006 110.095,262.142 109.651,262.240 109.040 C 262.338 108.429,262.366 107.877,262.302 107.813 C 262.238 107.749,262.102 108.194,262.000 108.800 M180.800 112.102 C 180.800 112.388,181.593 113.867,181.747 113.867 C 181.820 113.867,181.682 113.477,181.440 113.000 C 180.945 112.027,180.800 111.824,180.800 112.102 M261.366 112.400 C 261.344 112.693,261.264 113.233,261.189 113.600 L 261.052 114.267 261.337 113.612 C 261.494 113.253,261.574 112.713,261.514 112.412 C 261.409 111.881,261.405 111.880,261.366 112.400 M260.700 115.233 C 260.478 116.345,260.693 116.560,260.933 115.467 C 261.035 115.006,261.062 114.573,260.994 114.505 C 260.926 114.437,260.794 114.765,260.700 115.233 M182.933 116.072 C 182.933 116.319,185.102 119.457,185.401 119.642 C 185.535 119.725,185.134 119.029,184.510 118.096 C 183.255 116.219,182.933 115.806,182.933 116.072 M121.903 118.133 C 121.879 118.500,121.798 119.100,121.722 119.467 L 121.585 120.133 121.871 119.477 C 122.029 119.116,122.110 118.516,122.052 118.144 L 121.947 117.467 121.903 118.133 M254.400 120.000 C 253.935 120.587,253.615 121.067,253.689 121.067 C 253.762 121.067,254.202 120.587,254.667 120.000 C 255.131 119.413,255.451 118.933,255.378 118.933 C 255.305 118.933,254.865 119.413,254.400 120.000 M121.200 122.400 C 121.098 123.006,121.074 123.563,121.147 123.636 C 121.220 123.709,121.364 123.273,121.467 122.667 C 121.569 122.060,121.593 121.504,121.520 121.431 C 121.446 121.357,121.302 121.794,121.200 122.400 M252.650 122.200 L 251.867 123.067 252.733 122.283 C 253.210 121.853,253.600 121.463,253.600 121.417 C 253.600 121.211,253.380 121.392,252.650 122.200 M187.468 122.267 C 187.834 122.707,188.163 123.117,188.200 123.178 C 188.237 123.239,188.325 123.230,188.397 123.158 C 188.469 123.087,188.139 122.677,187.665 122.247 L 186.802 121.467 187.468 122.267 M249.317 125.539 L 248.133 126.800 249.329 125.733 C 249.987 125.147,250.577 124.637,250.640 124.600 C 250.704 124.563,250.698 124.476,250.628 124.406 C 250.558 124.335,249.968 124.845,249.317 125.539 M120.663 127.559 C 120.559 128.803,120.528 129.982,120.595 130.178 C 120.662 130.373,120.805 129.413,120.913 128.044 C 121.022 126.675,121.052 125.496,120.981 125.425 C 120.909 125.354,120.766 126.314,120.663 127.559 M191.403 126.245 C 191.950 126.747,192.440 127.116,192.491 127.064 C 192.610 126.945,190.865 125.352,190.604 125.341 C 190.496 125.337,190.856 125.744,191.403 126.245 M192.896 127.406 C 193.107 127.747,194.667 128.902,194.667 128.716 C 194.667 128.651,194.226 128.261,193.688 127.850 C 193.149 127.439,192.793 127.239,192.896 127.406 M245.456 128.741 C 244.559 129.545,244.788 129.474,245.969 128.581 C 246.392 128.261,246.632 128.003,246.503 128.007 C 246.373 128.011,245.902 128.341,245.456 128.741 M197.333 130.643 C 197.700 130.943,198.120 131.189,198.267 131.190 C 198.552 131.192,198.070 130.823,197.200 130.373 C 196.846 130.190,196.891 130.281,197.333 130.643 M242.600 130.553 C 241.603 131.093,241.664 131.319,242.667 130.800 C 243.107 130.572,243.467 130.329,243.467 130.260 C 243.467 130.088,243.438 130.098,242.600 130.553 M198.667 131.326 C 198.667 131.399,199.387 131.822,200.267 132.267 C 201.147 132.711,201.867 133.014,201.867 132.941 C 201.867 132.868,201.147 132.444,200.267 132.000 C 199.387 131.556,198.667 131.252,198.667 131.326 M208.267 135.454 C 208.487 135.603,208.897 135.727,209.178 135.729 C 209.860 135.735,209.647 135.582,208.667 135.363 C 208.082 135.232,207.975 135.257,208.267 135.454 M120.560 137.089 C 120.574 137.883,120.683 139.193,120.802 140.000 C 120.953 141.028,120.975 140.629,120.875 138.667 C 120.725 135.701,120.515 134.654,120.560 137.089 M214.333 136.722 C 214.663 136.785,215.203 136.785,215.533 136.722 C 215.863 136.658,215.593 136.606,214.933 136.606 C 214.273 136.606,214.003 136.658,214.333 136.722 M224.733 136.722 C 225.063 136.785,225.603 136.785,225.933 136.722 C 226.263 136.658,225.993 136.606,225.333 136.606 C 224.673 136.606,224.403 136.658,224.733 136.722 M218.478 136.998 C 219.474 137.049,221.034 137.049,221.944 136.997 C 222.855 136.945,222.040 136.903,220.133 136.904 C 218.227 136.904,217.482 136.947,218.478 136.998 M248.650 141.512 C 248.239 142.051,248.039 142.407,248.206 142.304 C 248.547 142.093,249.702 140.533,249.516 140.533 C 249.451 140.533,249.061 140.974,248.650 141.512 M121.248 144.133 C 121.332 144.867,121.446 145.517,121.501 145.578 C 121.688 145.788,121.547 144.133,121.320 143.467 C 121.167 143.017,121.144 143.234,121.248 144.133 M245.042 145.933 C 244.106 146.997,243.552 147.699,243.810 147.495 C 244.372 147.051,247.039 144.000,246.865 144.000 C 246.799 144.000,245.978 144.870,245.042 145.933 M121.775 147.600 C 121.864 148.187,121.981 148.717,122.035 148.778 C 122.237 149.007,122.086 147.579,121.854 147.067 C 121.686 146.695,121.662 146.857,121.775 147.600 M278.883 147.132 C 278.662 147.389,278.394 147.780,278.287 148.000 C 278.181 148.220,278.283 148.167,278.514 147.882 C 278.929 147.370,278.934 147.370,278.956 147.882 C 278.971 148.225,279.058 148.135,279.214 147.613 C 279.502 146.651,279.411 146.518,278.883 147.132 M240.800 150.267 C 240.152 150.927,239.682 151.467,239.756 151.467 C 239.829 151.467,240.419 150.927,241.067 150.267 C 241.714 149.607,242.184 149.067,242.111 149.067 C 242.038 149.067,241.448 149.607,240.800 150.267 M278.566 149.744 C 278.475 149.982,278.410 150.377,278.423 150.622 C 278.436 150.866,278.552 150.713,278.681 150.280 C 278.932 149.438,278.843 149.022,278.566 149.744 M278.019 152.152 C 277.921 152.543,277.892 152.914,277.955 152.977 C 278.018 153.040,278.150 152.772,278.248 152.381 C 278.346 151.990,278.375 151.619,278.312 151.556 C 278.249 151.493,278.117 151.762,278.019 152.152 M236.523 153.886 L 235.600 154.705 236.600 153.988 C 237.484 153.353,237.771 153.067,237.523 153.067 C 237.481 153.067,237.031 153.435,236.523 153.886 M274.133 154.400 C 273.820 154.840,273.624 155.200,273.697 155.200 C 273.770 155.200,274.087 154.840,274.400 154.400 C 274.713 153.960,274.910 153.600,274.836 153.600 C 274.763 153.600,274.447 153.960,274.133 154.400 M277.364 154.712 C 277.347 154.956,277.264 155.376,277.180 155.645 C 277.034 156.108,277.042 156.109,277.331 155.658 C 277.499 155.397,277.582 154.977,277.516 154.725 C 277.407 154.312,277.392 154.311,277.364 154.712 M123.471 155.089 C 123.473 155.370,123.597 155.780,123.746 156.000 C 123.943 156.292,123.968 156.184,123.837 155.600 C 123.618 154.619,123.465 154.407,123.471 155.089 M273.029 155.933 C 272.262 156.860,271.937 157.333,272.069 157.333 C 272.143 157.333,272.524 156.913,272.915 156.400 C 273.642 155.447,273.730 155.088,273.029 155.933 M166.669 156.492 C 166.671 156.588,167.181 156.876,167.803 157.132 C 168.933 157.597,168.933 157.597,168.267 157.079 C 167.558 156.529,166.665 156.201,166.669 156.492 M169.890 160.698 C 170.244 161.156,170.587 161.482,170.653 161.423 C 170.718 161.365,170.428 160.991,170.009 160.592 L 169.246 159.867 169.890 160.698 M265.862 164.200 L 262.800 167.333 265.933 164.271 C 268.844 161.427,269.188 161.067,268.996 161.067 C 268.957 161.067,267.547 162.477,265.862 164.200 M172.933 164.000 C 174.100 165.173,175.114 166.133,175.187 166.133 C 175.261 166.133,174.366 165.173,173.200 164.000 C 172.034 162.827,171.019 161.867,170.946 161.867 C 170.873 161.867,171.767 162.827,172.933 164.000 M215.067 164.267 C 214.730 164.411,214.681 164.496,214.933 164.496 C 215.153 164.496,215.573 164.393,215.867 164.267 C 216.203 164.122,216.252 164.037,216.000 164.037 C 215.780 164.037,215.360 164.141,215.067 164.267 M185.867 164.800 C 186.087 164.942,186.447 165.058,186.667 165.058 C 187.022 165.058,187.022 165.030,186.667 164.800 C 186.447 164.658,186.087 164.542,185.867 164.542 C 185.511 164.542,185.511 164.570,185.867 164.800 M188.267 165.333 C 189.178 165.625,189.880 165.625,189.200 165.333 C 188.907 165.207,188.427 165.108,188.133 165.112 C 187.705 165.118,187.731 165.162,188.267 165.333 M210.000 165.333 L 209.467 165.563 210.000 165.563 C 210.293 165.563,210.773 165.459,211.067 165.333 L 211.600 165.104 211.067 165.104 C 210.773 165.104,210.293 165.207,210.000 165.333 M273.378 165.853 C 273.222 166.301,273.151 166.667,273.220 166.667 C 273.400 166.667,273.904 165.281,273.772 165.149 C 273.711 165.089,273.534 165.406,273.378 165.853 M191.333 165.867 C 191.773 165.979,192.493 166.071,192.933 166.071 C 193.606 166.072,193.564 166.037,192.667 165.851 C 191.316 165.572,190.224 165.584,191.333 165.867 M206.133 165.867 C 205.234 166.056,205.229 166.063,206.000 166.067 C 206.440 166.069,207.160 165.979,207.600 165.867 C 208.707 165.585,207.471 165.585,206.133 165.867 M197.533 166.331 C 198.597 166.382,200.337 166.382,201.400 166.331 C 202.463 166.281,201.593 166.239,199.467 166.239 C 197.340 166.239,196.470 166.281,197.533 166.331 M176.022 167.000 C 176.083 167.037,176.493 167.367,176.933 167.733 L 177.733 168.400 177.087 167.667 C 176.731 167.263,176.321 166.933,176.176 166.933 C 176.030 166.933,175.961 166.963,176.022 167.000 M258.133 170.966 C 257.204 171.781,257.204 171.782,258.059 171.213 C 258.531 170.899,258.988 170.527,259.074 170.388 C 259.332 169.971,259.118 170.102,258.133 170.966 M180.896 170.873 C 181.107 171.214,182.667 172.368,182.667 172.183 C 182.667 172.117,182.226 171.727,181.688 171.317 C 181.149 170.906,180.793 170.706,180.896 170.873 M131.333 173.600 C 131.561 174.040,131.807 174.400,131.880 174.400 C 131.954 174.400,131.828 174.040,131.600 173.600 C 131.372 173.160,131.126 172.800,131.053 172.800 C 130.980 172.800,131.106 173.160,131.333 173.600 M184.133 173.205 C 184.427 173.444,184.907 173.757,185.200 173.901 L 185.733 174.163 185.200 173.729 C 184.907 173.490,184.427 173.176,184.133 173.032 L 183.600 172.771 184.133 173.205 M248.733 176.818 C 248.183 177.109,247.733 177.406,247.733 177.478 C 247.733 177.551,248.213 177.366,248.800 177.067 C 249.387 176.767,249.867 176.465,249.867 176.395 C 249.867 176.220,249.865 176.221,248.733 176.818 M135.191 179.586 C 135.640 180.239,136.134 180.851,136.290 180.948 C 136.445 181.044,136.132 180.510,135.595 179.761 C 134.393 178.089,134.062 177.946,135.191 179.586 M204.667 182.400 C 204.960 182.526,205.380 182.629,205.600 182.629 C 205.852 182.629,205.803 182.544,205.467 182.400 C 205.173 182.274,204.753 182.171,204.533 182.171 C 204.281 182.171,204.330 182.256,204.667 182.400 M207.067 182.933 C 207.360 183.059,207.840 183.159,208.133 183.155 C 208.562 183.148,208.536 183.105,208.000 182.933 C 207.088 182.641,206.387 182.641,207.067 182.933 M231.467 182.933 C 230.931 183.105,230.905 183.148,231.333 183.155 C 231.627 183.159,232.107 183.059,232.400 182.933 C 233.080 182.641,232.378 182.641,231.467 182.933 M210.000 183.467 C 210.293 183.593,210.893 183.690,211.333 183.683 L 212.133 183.670 211.333 183.467 C 210.893 183.355,210.293 183.257,210.000 183.250 L 209.467 183.237 210.000 183.467 M228.000 183.467 L 227.067 183.663 228.000 183.679 C 228.513 183.688,229.173 183.593,229.467 183.467 L 230.000 183.237 229.467 183.254 C 229.173 183.263,228.513 183.359,228.000 183.467 M214.548 184.035 C 214.980 184.128,217.313 184.204,219.733 184.204 C 222.153 184.204,224.487 184.128,224.918 184.035 C 225.350 183.942,223.017 183.867,219.733 183.867 C 216.450 183.867,214.117 183.942,214.548 184.035 M139.467 185.150 C 139.467 185.196,139.857 185.586,140.333 186.017 L 141.200 186.800 140.417 185.933 C 139.687 185.125,139.467 184.944,139.467 185.150 M260.117 186.467 L 259.333 187.333 260.200 186.550 C 260.677 186.119,261.067 185.729,261.067 185.683 C 261.067 185.477,260.847 185.659,260.117 186.467 M144.000 190.000 C 145.388 191.393,146.583 192.533,146.656 192.533 C 146.729 192.533,145.654 191.393,144.267 190.000 C 142.879 188.607,141.684 187.467,141.611 187.467 C 141.537 187.467,142.612 188.607,144.000 190.000 M257.350 189.415 L 256.701 190.267 257.550 189.483 C 258.434 188.669,258.535 188.523,258.200 188.548 C 258.090 188.556,257.708 188.946,257.350 189.415 M146.933 192.617 C 146.933 192.663,147.323 193.053,147.800 193.483 L 148.667 194.267 147.883 193.400 C 147.153 192.592,146.933 192.411,146.933 192.617 M252.454 193.883 C 251.604 194.607,251.004 195.199,251.121 195.197 C 251.238 195.195,251.993 194.601,252.800 193.875 C 254.696 192.171,254.458 192.176,252.454 193.883 M149.041 194.484 C 149.455 195.003,151.467 196.645,151.467 196.464 C 151.467 196.401,150.837 195.825,150.067 195.182 C 149.297 194.540,148.835 194.226,149.041 194.484 M153.867 198.230 C 153.867 198.304,154.227 198.620,154.667 198.933 C 155.107 199.247,155.467 199.443,155.467 199.370 C 155.467 199.296,155.107 198.980,154.667 198.667 C 154.227 198.353,153.867 198.157,153.867 198.230 M238.340 203.574 C 236.944 204.403,236.723 204.709,238.000 204.043 C 239.337 203.347,239.946 202.935,239.600 202.963 C 239.453 202.974,238.887 203.249,238.340 203.574 M229.933 207.475 C 229.040 207.834,229.207 208.016,230.133 207.693 C 230.573 207.540,230.933 207.366,230.933 207.307 C 230.933 207.149,230.609 207.203,229.933 207.475 M180.933 210.933 C 181.227 211.059,181.707 211.159,182.000 211.155 C 182.429 211.148,182.403 211.105,181.867 210.933 C 180.955 210.641,180.254 210.641,180.933 210.933 M219.200 210.933 C 218.664 211.105,218.638 211.148,219.067 211.155 C 219.360 211.159,219.840 211.059,220.133 210.933 C 220.813 210.641,220.112 210.641,219.200 210.933 M183.067 211.454 C 183.579 211.686,185.007 211.837,184.778 211.635 C 184.717 211.581,184.187 211.464,183.600 211.375 C 182.857 211.262,182.695 211.286,183.067 211.454 M187.333 212.267 C 188.461 212.554,189.430 212.554,188.533 212.267 C 188.167 212.149,187.567 212.055,187.200 212.058 C 186.601 212.063,186.615 212.084,187.333 212.267 M212.400 212.274 C 212.044 212.431,212.265 212.457,213.067 212.351 C 213.727 212.264,214.317 212.149,214.378 212.096 C 214.609 211.896,212.909 212.048,212.400 212.274 M191.333 212.815 C 191.920 212.937,192.760 213.029,193.200 213.021 C 193.896 213.007,193.861 212.977,192.933 212.785 C 192.347 212.663,191.507 212.571,191.067 212.579 C 190.371 212.593,190.405 212.623,191.333 212.815 M208.133 212.814 C 207.607 212.956,207.881 212.980,208.933 212.882 C 209.813 212.800,210.583 212.688,210.644 212.633 C 210.843 212.455,208.956 212.590,208.133 212.814 M198.467 213.265 C 199.603 213.315,201.463 213.315,202.600 213.265 C 203.737 213.215,202.807 213.174,200.533 213.174 C 198.260 213.174,197.330 213.215,198.467 213.265 " stroke="none" fill="#d49ca4" fill-rule="evenodd"></path></g></svg>